<svg xmlns="http://www.w3.org/2000/svg" viewBox="0 0 267.48 181.79"><defs><style>.cls-1{stroke:#000;stroke-miterlimit:10;fill-rule:evenodd;}</style></defs><title>Asset 3</title><g id="Layer_2" data-name="Layer 2"><g id="Layer_2-2" data-name="Layer 2"><path class="cls-1" d="M8.4,148.05c2.6,1.29,4.65,2.45,6.83,3.34a32.18,32.18,0,0,0,5.27,1.51,62.36,62.36,0,0,0,14.7,1.71c6.12-.14,11.42-1.81,15.85-5.41a89.7,89.7,0,0,0,13.16-12.72,111.71,111.71,0,0,0,8.11-12c3.32-5.35,5.68-11.1,8.26-16.77a161.87,161.87,0,0,1,9.94-19.27c1.7-2.7,2.94-5.64,4.5-8.42a48.33,48.33,0,0,1,8.12-10.26,80.76,80.76,0,0,1,12.54-10.27,72.93,72.93,0,0,1,7.61-4.26,96.26,96.26,0,0,1,9.52-4.33c6-2.21,12-4.35,18.15-6.19,4.3-1.28,8.86-2,13.3-3,5.85-1.33,11.76-.67,17.61.6,5.53,1.2,11,2.7,16.48,4.13a35.57,35.57,0,0,1,4,1.42q8.41,3.35,16.8,6.75a20.09,20.09,0,0,1,3.73,1.89c3.44,2.28,6.8,4.66,10.18,7,5.88,4.09,10.74,9.08,16.08,13.65a12,12,0,0,1,2.31,2.69c3.06,4.92,6.13,9.83,8.25,15.13a66.8,66.8,0,0,1,3.69,12.85c.84,4.59,2.8,9,3,13.72.16,3.75,1,7.51.4,11.25a24.35,24.35,0,0,0,.07,2.55,49.57,49.57,0,0,1-1.88,9.48c-.7,2.8-2.33,5.07-3.94,7.4-1,1.41-1.79,2.85-3.9,3.48-1.2.35-1.93,1.64-3,2.35-2.09,1.34-4.25,2.6-6.45,3.81a181.31,181.31,0,0,1-19.44,8.75,43.51,43.51,0,0,1-10.32,2.74c-4.69.64-9.23,1.9-14.09,1.86a3.26,3.26,0,0,0-.82.13c-4.63,1.38-9.64,1.37-14.41,2.22-2.05.37-4.11.7-6.17,1-1.38.22-2.75.47-4.14.6-7.39.68-14.78,1.32-22.17,2-.42,0-.84.09-1.26.08-9.86,0-19.72.1-29.59-.06-6.77-.11-13.55-.57-20.33-.88l-.42,0c-6.91.47-13.82-.67-20.73-1a26.06,26.06,0,0,1-4.16-.72c-1-.2-1.89-.63-2.86-.77a85.52,85.52,0,0,1-14.82-3.55c-4.12-1.42-8.4-2.46-12.53-3.85-6-2-12.08-3.86-18.2-5.62A86,86,0,0,1,14,158a11.44,11.44,0,0,1-3.2-2.48c-1.7-2-3.14-4.17-4.75-6.24-2.58-3.32-3.1-7.15-4.17-10.83C.59,134.08.61,129.67.59,125.3c0-5.34-.3-10.71.28-16,.28-2.52.61-5,1-7.56A4.17,4.17,0,0,1,2.52,100c.56-.84,2.16-.68,2.86.18a2.14,2.14,0,0,1,.45,2.08c-1.4,5-1.27,10.09-1.42,15.17s-.11,10.46.2,15.69a45.61,45.61,0,0,0,2.57,12.28A25.16,25.16,0,0,0,8.4,148.05Zm2.41,3.9c1.1,1.11,1.46,1.72,2,2a103.32,103.32,0,0,0,9.52,4.34c4.1,1.47,8.39,2.5,12.56,3.81,6.47,2,12.91,4.17,19.37,6.24,4,1.3,8.07,2.61,12.13,3.83a43.62,43.62,0,0,0,4.57,1c2.23.43,4.49.73,6.69,1.24a54.18,54.18,0,0,0,10.12,1.26c7.21.3,14.41.55,21.61.87,5.79.25,11.6.76,17.38.82,6.76.06,13.56.43,20.29-.15.83-.07,1.68-.06,2.53-.09,2.66-.08,5.37,0,8-.27,10.28-1.11,20.7-1.59,30.8-3.6.94-.19,1.93-.23,2.9-.35,8.3-1.07,16.72-1.72,24.81-3.59a78.35,78.35,0,0,0,10-2.61c6.57-2.51,12.91-5.43,19.44-8A24.59,24.59,0,0,0,254,153c.72-.72,1.33-1.68,2.26-2a5.62,5.62,0,0,0,3.31-3.45,34.74,34.74,0,0,0,3.08-10.44,81.47,81.47,0,0,0-3.28-31.23c-.77-2.63-1.39-5.28-2.3-7.88a64.86,64.86,0,0,0-6.67-14,34.64,34.64,0,0,0-6.56-7.86c-1.44-1.23-2.89-2.46-4.23-3.78a74.51,74.51,0,0,0-12.49-9.84,31.31,31.31,0,0,1-3.39-2.34,27.91,27.91,0,0,0-12.41-5.67,35.85,35.85,0,0,1-4.76-1.67c-2.9-1.08-5.72-2.37-8.69-3.24-4.75-1.38-9.58-2.54-14.41-3.68a42,42,0,0,0-11.78-1.3,42.73,42.73,0,0,0-12.25,2.19,22.23,22.23,0,0,1-3.19.81,112.72,112.72,0,0,0-17.34,5.06c-2.65,1-5.1,2.38-7.74,3.42a72.42,72.42,0,0,0-17.86,10.19c-7.78,6-14.06,12.92-17.91,21.48-1.7,3.75-4.25,7.17-6,10.94a80.74,80.74,0,0,1-4.65,7.95c-1.67,2.74-1.57,6.11-3.75,8.66a18.23,18.23,0,0,1-3.2,7.28c-2.77,4.22-5,8.69-7.64,13a26,26,0,0,1-5,6.1c-2.94,2.64-5.55,5.55-8.57,8.11a34.65,34.65,0,0,1-7.16,4.78,29.54,29.54,0,0,1-12.68,3.1c-4.58.07-9-.81-13.5-1.44A23.69,23.69,0,0,1,13,152.45,11.54,11.54,0,0,0,10.81,152Z"/><path class="cls-1" d="M244.49,77.93a2,2,0,0,1-1.68-2.41c.2-1.44.61-2.85.69-4.3.24-4.5-.71-9-1.28-13.47-2.24-4.37-3.09-9.29-7.43-12.84a35.06,35.06,0,0,0-10.9-6.57c-4-1.38-7.91-2.92-12.21-3.4a35.28,35.28,0,0,0-5.9-.26c-2.65.15-5.38-.19-8,.12a70.77,70.77,0,0,0-7.59,1.77c-2.28.54-4.62.89-6.62,2.06a5.37,5.37,0,0,1-2.68.85c-3.95-.12-7.25,1.41-10.78,2.4a15.1,15.1,0,0,1-2.68.26c.28-1.13.51-2.08.81-3.3l2.82-1.56c-.1-.28-.1-.6-.25-.68-1.1-.59-2.28-1.06-3.35-1.69a12.69,12.69,0,0,0-5.11-1.79,9.38,9.38,0,0,1-6.47-3.34,8.88,8.88,0,0,0-8.22-3.11,1.51,1.51,0,0,1-.42,0c-3.15-.58-5.24.71-7.17,2.55a25,25,0,0,1-15,6.91c-3,.32-6.16.3-9.25.38s-5.9.16-8.55,1.4a24,24,0,0,1-2.81.65A27.38,27.38,0,0,0,100.69,40a2.4,2.4,0,0,0-1.23,1.36c-.43,1.62-.67,3.29-1,4.94-.39,2.14-.66,4.3-1.17,6.4-.28,1.16-1.44,1.3-2.62.5a3.65,3.65,0,0,1-.3-.27l-1-.85c1.58-2.54,1.49-5.22,1.71-7.85a20.9,20.9,0,0,1,.66-3.2,5.76,5.76,0,0,1,5.44-4.69,7.4,7.4,0,0,0,2.36-.68,22.22,22.22,0,0,1,9.3-1.82c3.09-.1,6.19-.16,9.28-.21a15,15,0,0,0,6.41-1.4c3-1.46,6.09-2.82,8.39-5.1.36-.36.89-.58,1.23-.95,2.33-2.53,5.72-2.65,9.13-2.53a12.56,12.56,0,0,1,8,3.3c.5.45,1.07.85,1.53,1.33a5.65,5.65,0,0,0,4,1.87A11.53,11.53,0,0,1,166.33,32a10.85,10.85,0,0,0,3.06,1.33c2,.47,3.79,1.14,4.39,2.92a8,8,0,0,0,5-1.36c3.35-1.9,7.32-2.08,11.11-2.67,5.07-.79,10.34-.54,15.51-.7a40.21,40.21,0,0,1,10.46,1.56A47.17,47.17,0,0,1,233.31,41a23.28,23.28,0,0,1,8,10c1.1,2.8,2.73,5.46,3.32,8.39.76,3.73,1.66,7.44,1.18,11.23a24,24,0,0,0,.26,4.37A2.79,2.79,0,0,1,244.49,77.93Z"/><path class="cls-1" d="M24.52,67.7c-3.87,2-4.58,5.23-5.27,8.4a9.76,9.76,0,0,1-1.35,4.08,4.3,4.3,0,0,0-.77,1.65,7.39,7.39,0,0,1-4.34,5.33c-1.57.74-2.18,2.08-3,3.34.23,1.45.48,2.9.67,4.35a12.94,12.94,0,0,0,2.08,6,11.35,11.35,0,0,1,1.84,7.79c-.32,3.51-.74,7-2.36,10.21-1.17,2.35.3,4.53,1.36,6.63a20.7,20.7,0,0,0,2.88,3.71c1.21,1.4,2.47,2.77,3.75,4.13,3.09,3.29,2.61,6.75,1.68,10.17-1.72.42-2.48-.4-3.36-1.08a4.69,4.69,0,0,1-.08-1.06c.12-.71.43-1.4.48-2.11.14-2.22-.11-4.31-2.07-6.17S12.92,129,11,127c-2.31-2.33-2.53-5.17-3.17-7.9a3.17,3.17,0,0,1,.63-2c2.3-4,2.15-8.42,2.07-12.79A8.8,8.8,0,0,0,9,100.43c-1.72-3-2-6.16-2.85-9.25A5.5,5.5,0,0,1,8,85.85,6.91,6.91,0,0,1,9.4,84.56c3.73-1.88,4.41-5.29,5.49-8.49.74-2.19,1.4-4.39,2-6.6a6.52,6.52,0,0,1,3.4-3.86A5.48,5.48,0,0,1,24.71,65c3,.82,6,1.7,8.48,3.55a18.16,18.16,0,0,0,1.67,1A6.94,6.94,0,0,0,40,67.29a17,17,0,0,1,3-2.4,6.62,6.62,0,0,1,4.76-1c4.35.67,8.74,1.2,12.7,3.2a8.08,8.08,0,0,0,4.06.85,2.5,2.5,0,0,1,2.8,2.23,3.2,3.2,0,0,1-3.48.75,10.51,10.51,0,0,1-2-.77c-3.48-2-7.44-2.55-11.36-3.19a5.71,5.71,0,0,0-5.58,1.67,13.51,13.51,0,0,1-6,3.59A5.24,5.24,0,0,1,34.49,72a8.4,8.4,0,0,1-1.78-1C30.49,68.89,27.69,68.11,24.52,67.7Z"/><path class="cls-1" d="M32.8,146.71a77.15,77.15,0,0,1-2.41-22.85A50.33,50.33,0,0,1,32,114.2c.88-3.51,1.79-7,3.87-10.19a10.78,10.78,0,0,1,1.49-2.1c2.6-2.45,5.15-4.93,7.93-7.22,3.66-3,7.33-6.08,11.33-8.76A53.86,53.86,0,0,1,69,79.67c.77-.27,1.51-.58,2.24-.91,4.14-1.87,8.69-2.32,13.37-2.28a4.08,4.08,0,0,1,3,1.29.9.9,0,0,1-.49,1.46,16,16,0,0,1-2.49,0,21.84,21.84,0,0,0-10.47,1.89c-1.25.49-2.52,1-3.72,1.55-2.62,1.27-5.21,2.6-7.82,3.89a39.82,39.82,0,0,0-8.62,6c-3.39,2.94-6.78,5.88-10.45,8.55a18.17,18.17,0,0,0-6.9,9.91,65.18,65.18,0,0,0-3.06,17.11c-.06,3.5.46,7,.73,10.55.17,2.19.42,4.37.53,6.56C34.91,146.23,34.49,146.46,32.8,146.71Z"/><path class="cls-1" d="M78.54,92.4a17.23,17.23,0,0,1,1.55.77,1.11,1.11,0,0,1-.17,2.07,12.6,12.6,0,0,1-3.23.58,21.46,21.46,0,0,0-10.43,3,48.56,48.56,0,0,0-12,10c-2.31,2.52-3.44,5.68-4.87,8.65-.64,1.31-1,2.73-1.62,4.07-2.24,5.14-2.12,10.62-2.07,16.08a15.7,15.7,0,0,0,.57,2.52c.25,1.32.48,2.66.61,4a1.24,1.24,0,0,1-1.05,1.37,1.77,1.77,0,0,1-1.86-1.2c-.51-2.78-1.14-5.55-1.46-8.34-.73-6.28-.2-12.41,2.52-18.2.42-.88.81-1.78,1.14-2.69,2.77-7.46,8.48-13,15.4-17.65a23.84,23.84,0,0,1,12.54-4.32,21,21,0,0,0,2.42-.53C77.16,92.48,77.86,92.46,78.54,92.4Z"/><path class="cls-1" d="M36,62.94c.58-1.8,1.08-3.27,1.53-4.75a43.59,43.59,0,0,1,1.36-4.52,10.19,10.19,0,0,1,2.1-3,4.15,4.15,0,0,1,4.95-.76,16.44,16.44,0,0,0,5.63,1.5A31.55,31.55,0,0,1,57,53.15a24.06,24.06,0,0,0,7.28-2.82c.66-.43,1.4-.76,2.08-1.17a7.18,7.18,0,0,1,6-.55,22.4,22.4,0,0,0,4.16.75,5,5,0,0,1,4.66,3.32,48.74,48.74,0,0,1,2.07,6.37,3.87,3.87,0,0,0,2.3,2.9,10.21,10.21,0,0,1,5.52,5.92,59.91,59.91,0,0,0,3.71,7.38c-1.52,1.18-2,1.27-2.73.37a18.83,18.83,0,0,1-2.12-3.22c-.9-1.82-1.69-3.68-2.42-5.56a5,5,0,0,0-2.87-3.09c-3.14-1.31-4.72-3.41-5-6.42-.17-1.77-1.08-3.52-1.66-5.3-1.62-.37-3-.6-4.34-1a6.22,6.22,0,0,0-5.5.87A37.9,37.9,0,0,1,64.78,54a13.48,13.48,0,0,1-5.54,1.43,6.45,6.45,0,0,1-2.83-.5c-1.67-.67-3.48-1.07-5.23-1.59-1.48-.44-3-.82-4.44-1.33a2.43,2.43,0,0,0-2.69.41,10,10,0,0,0-2.14,3,44.34,44.34,0,0,0-1.42,5.23c-.18.71-.26,1.44-.49,2.12-.28.86-1.14,1.19-2.34.91A11.49,11.49,0,0,1,36,62.94Z"/><path class="cls-1" d="M3.29,83.86c.33-2,.49-3.76,1-5.49a94.21,94.21,0,0,1,6.54-17.73,20.08,20.08,0,0,1,4.11-5.72c2.94-2.8,5.58-5.85,9.09-8.17,1.52-1,3.15-1.88,4.69-2.86s2.81-1.88,4.23-2.8c1.25-.82,2.62-1.43,4.26-.71.58.26,1.3.78,1.4,1.24A1.71,1.71,0,0,1,37.69,43,58,58,0,0,1,32,45.93a25.39,25.39,0,0,0-6.58,4.2c-4.27,3.67-8.65,7.27-11.45,12a13.92,13.92,0,0,0-1.15,2.28q-3,8.75-6,17.52a2.69,2.69,0,0,1-1.7,1.89A7,7,0,0,1,3.29,83.86Z"/><path class="cls-1" d="M179.48,3.63c-1,.84-2.16,1.7-3.23,2.6a4.87,4.87,0,0,1-4.62.85c-3.71-.86-7.47-1.54-11.23-2.14a5.07,5.07,0,0,0-2.71.64c-2.81,1.38-4.58,3.69-6.58,5.78-.88.91-1.63,1.91-2.48,2.84-1.57,1.7-2.76,2-5.08,1.22a24.5,24.5,0,0,1-2.41-1.12c4-.76,3.94-.8,6.11-3.44A60,60,0,0,1,152.55,5a17.4,17.4,0,0,1,4.33-2.7,4.59,4.59,0,0,1,2.45,0c3.48.61,7,1.24,10.43,2A4.61,4.61,0,0,0,174,3.41c.8-.66,1.7-1.22,2.43-1.92a3.82,3.82,0,0,1,3.81-.83,21.9,21.9,0,0,1,8.59,4.15c1.56,1.2,2.5,2.77,2.1,4.62-.24,1.12.15,1.84,1.4,2.39a2.16,2.16,0,0,1,1.28,2.2c0,.48-.11,1-.16,1.45a3.41,3.41,0,0,0,2,3.44c1.33.75,2.74,1.39,4,2.19a1.25,1.25,0,0,1,.38,1.24,1.64,1.64,0,0,1-1.35.52,13.26,13.26,0,0,1-5.74-3.7,14.22,14.22,0,0,1-1.67-3,31.82,31.82,0,0,0-2.06-5.24A7.11,7.11,0,0,1,188.54,8a3,3,0,0,0-1.77-2.39A13,13,0,0,0,179.48,3.63Z"/><path class="cls-1" d="M114,22.46,118.38,21a3.14,3.14,0,0,1,3.13.62c.48.4.53,1.42,0,1.63a43.15,43.15,0,0,1-5.76,1.9,5,5,0,0,1-2.75-.78c-1.47-.76-2.84-1.69-4.36-2.61-.82.18-1.6.37-2.39.53-4.4.92-8.68.05-12.87-1.37a8.68,8.68,0,0,1-4.09-3.25A28.47,28.47,0,0,0,86.4,14.4a2.46,2.46,0,0,0-3.08-.2,4.37,4.37,0,0,0-2.43,3.56c-.16,2.41-.39,4.82-.59,7.23a17.64,17.64,0,0,1-1.86,7,8,8,0,0,1-4.13,3.81,1.49,1.49,0,0,1-1.89-.35,1.4,1.4,0,0,1-.14-1.32,22.42,22.42,0,0,1,1.79-2.38,12.68,12.68,0,0,0,3-8.44,52.72,52.72,0,0,1,.85-8.67c.25-1.78,2.43-3.61,4.41-3.77a4.71,4.71,0,0,1,2.42.52,12.66,12.66,0,0,1,5,4.08c2.07,3.38,5.58,4.07,9.37,4.3a25.4,25.4,0,0,0,3.8-.11c3.66-.35,7,.2,10,2.46A4.32,4.32,0,0,0,114,22.46Z"/><path class="cls-1" d="M146.69,7.06l-5.25.63L130.24,9c-1.53.18-3.06.3-4.58.5-1.78.24-3.56.53-5.33.83-1,.16-1.89.43-2.85.54a126.36,126.36,0,0,0-16.21,3.41,24.17,24.17,0,0,1-4.12.52,1.34,1.34,0,0,1-1.43-1.15c-.16-.64-.06-1.31.67-1.55a70.21,70.21,0,0,1,7.45-2.23q16.86-3.47,34.09-5.67c1.94-.25,3.85-.61,5.79-.85a3.1,3.1,0,0,1,2.79.51A2.29,2.29,0,0,1,146.69,7.06Z"/><path class="cls-1" d="M76.51,45.76a6.5,6.5,0,0,1-4.34-1.12c-1.89-1.13-3.68-2.41-5.49-3.65a5.6,5.6,0,0,1-1.57-1.27c-1.75-2.79-4.84-4.22-7.78-5.69a38,38,0,0,0-5.81-1.92,23,23,0,0,1-3.36,1.61,2.45,2.45,0,0,0-2,2.42A15.67,15.67,0,0,0,46.07,38c.11,2.45-1.25,4.39-2.62,6.31a1.6,1.6,0,0,1-1.38.37,1.52,1.52,0,0,1-.92-1.1,9.39,9.39,0,0,1,.66-3.16c1-2.15,1.72-4.28,1.33-6.69a4.84,4.84,0,0,1,.42-1.77c1.52-.83,3.61-.69,4.68-2.17.46-.63,1.53-.52,2.35-.2A79.25,79.25,0,0,0,58,32.48c3.79,1.07,6,3.51,8.55,6a18.29,18.29,0,0,0,8.38,5.1C76,43.81,77.07,44.39,76.51,45.76Z"/><path class="cls-1" d="M139.43,39.19,142,41.05a5,5,0,0,1-3.32,2.66,6.17,6.17,0,0,1-3.73-.06c-2.61-.64-5.25-1.18-7.81-2a9.83,9.83,0,0,0-9.08,1.1c-1.38.95-1.53.83-3.26-.94.47-1.67,2-2.5,3.64-3.13a9.56,9.56,0,0,1,5.8-.1c3,.78,6,1.64,8.94,2.51a4.59,4.59,0,0,0,4-.43C137.82,40.26,138.46,39.82,139.43,39.19Z"/><path class="cls-1" d="M58.9,29.43a2.76,2.76,0,0,1-2.5-2.6c.07-.81.59-1.27,1.54-1.44,1.9-.36,3.76-.84,5.67-1.16a12.15,12.15,0,0,0,5.48-2.35,3.27,3.27,0,0,1,3.53-.29c.85.41,1.94.57,2.23,1.59.2.7-.5,1.49-2,2C68.49,26.6,64.11,28,59.73,29.38A3.23,3.23,0,0,1,58.9,29.43Z"/><path class="cls-1" d="M85.63,49l5.17,1.58c4.19,1.25,5.58,2.95,5.6,6.85a5.32,5.32,0,0,0,.19.92A15.45,15.45,0,0,0,103,59.37a9.36,9.36,0,0,1,2.49.07c.56.16,1.28.78,1.33,1.22s-.51,1.09-1,1.33a3.61,3.61,0,0,1-2,.2c-2.1-.3-4.18-.71-6.27-1.08-3.18-.57-4.73-2.08-4.89-4.85,0-.83,0-1.66.07-2.59C90.11,52.61,87.06,52.25,85.63,49Z"/><path class="cls-1" d="M65.58,103.77c3.22.69,4.41,2.51,4.73,4.92a28,28,0,0,1,.38,3.27c0,1.51-.91,2.36-2.72,2.68-2,.35-3.58-.16-4.38-1.54a6.52,6.52,0,0,1-.91-4.63C63.09,106.33,63.46,105.6,65.58,103.77Zm1.53,3.48c-1.82-.22-2.1,1-2.37,2a3.18,3.18,0,0,0,.69,3.42,1.36,1.36,0,0,0,1.13.09,2.75,2.75,0,0,0,1.2-1.3A4.92,4.92,0,0,0,67.11,107.25Z"/><path class="cls-1" d="M52.34,122.64c.36-1.64.76-2.7,1.91-3.53,2.33-1.66,3.4-1.71,5.86,0a2.93,2.93,0,0,1,1.38,2.9,6,6,0,0,1-3,4.47,3.94,3.94,0,0,1-6.11-2.2A6.19,6.19,0,0,1,52.34,122.64Zm6-2.74c-2.73.66-3.21,2.34-3.52,4.09a1.37,1.37,0,0,0,.48,1.21,1.81,1.81,0,0,0,1.45-.18A4,4,0,0,0,58.35,119.9Z"/><path class="cls-1" d="M57.13,130.34c1.22,1,2.24,1.88,3.23,2.74a2.15,2.15,0,0,1,.62,2.64A9.48,9.48,0,0,1,58.57,139a3.51,3.51,0,0,1-3.78.8,3.44,3.44,0,0,1-2.64-2.66C51.35,133.63,52.83,131.56,57.13,130.34Zm.38,2.15c-3.12,1.1-3.12,3.25-3.29,5.3a1.51,1.51,0,0,0,2.29-.43C57.5,136,58.85,134.68,57.51,132.49Z"/><path class="cls-1" d="M27.9,88.83l-2.71,2.81a4.22,4.22,0,0,0,3,3.55c3.25,1.16,3.67,3.2,3.16,5.68a8.53,8.53,0,0,1-.36.94,7.34,7.34,0,0,1-2.1.38c-1.35-.1-1.92-1-1.43-2.07.35-.76.74-1.5,1-2-.18-1.46-1.39-1.83-2.22-2.46a7.92,7.92,0,0,1-3.15-4.31,2.49,2.49,0,0,1,1.31-2.8A2.56,2.56,0,0,1,27.9,88.83Z"/><path class="cls-1" d="M48.19,77.91,46,80.54A18.77,18.77,0,0,0,46.47,83c.66,2-.33,3.58-1.57,5s-3.22,1.28-5-.24c1.23-.88,3.06-1.09,3.81-2.51a3.25,3.25,0,0,0,.58-2.74A10.77,10.77,0,0,1,43.73,80a2.31,2.31,0,0,1,1.88-2.5A7.87,7.87,0,0,1,48.19,77.91Z"/><path class="cls-1" d="M24.2,116.69c.65-.13,1.43-.33,2.22-.45,1.2-.19,2.09.27,2.28,1.13a1.72,1.72,0,0,1-1.91,1.86,3.94,3.94,0,0,1-1.24-.15A8,8,0,0,1,22.88,118a5.61,5.61,0,0,0-4.82-1.32c-.22-2.16.89-3.1,2.59-2.29A31.12,31.12,0,0,1,24.2,116.69Z"/><path class="cls-1" d="M152.11,35.12c-3.27.5-3.27.5-6.19-.79,1.69-.82,1.69-.85,3.13-.67C150.11,33.78,151.3,33.76,152.11,35.12Z"/><path class="cls-1" d="M68.92,157.23a39.81,39.81,0,0,1,3.58-2.69,11.08,11.08,0,0,1,6.25-1.68,35.17,35.17,0,0,1,9.17,1.56c4,1.28,8.1,2.49,12.17,3.7a25.37,25.37,0,0,0,10.47.61,94.36,94.36,0,0,0,12.55-2.62,63.48,63.48,0,0,1,23.79-1.23q12.45,1.53,24.91,2.8c3.8.38,7.61.55,11.42.69,7.81.3,14.93-1.57,21.85-4.18a65.44,65.44,0,0,0,11.1-5.47,24.3,24.3,0,0,1,12.07-3.41c2.38-.09,4.78-.21,7.17-.13a11.66,11.66,0,0,1,6.08,1.5c.6.38,1.05,1,.64,1.57a2.33,2.33,0,0,1-1.35.56,3,3,0,0,1-1.26-.1c-5.48-1.37-10.59.16-15.78.85a11.34,11.34,0,0,0-3.62,1.64c-2.57,1.35-5.08,2.8-7.67,4.14-1.76.9-3.48,1.84-5.37,2.59A61.19,61.19,0,0,1,178,161.65q-9.51-.94-19-2c-3.1-.34-6.18-.84-9.26-1.29a60,60,0,0,0-25,1.38,80.94,80.94,0,0,1-14.3,2.56,23.09,23.09,0,0,1-7.55-.7c-3.17-.76-6.3-1.62-9.44-2.47a11.76,11.76,0,0,1-2.79-1c-2.25-1.29-4.8-1.6-7.28-2.15a9.86,9.86,0,0,0-8.24,1.48,19.57,19.57,0,0,1-2.41,1.38C71.12,159.7,70.76,159.56,68.92,157.23Z"/><path d="M214,173.34l.68-.58a1.17,1.17,0,0,0,.31-.48,1.36,1.36,0,0,0,0-1.16,1.24,1.24,0,0,0-.31-.48l-.31-.23a1.42,1.42,0,0,0-.75-.21l-.4.05a1.47,1.47,0,0,0-.66.39l-.68.58a1.14,1.14,0,0,0-.31.48,1.36,1.36,0,0,0,0,1.16,1.14,1.14,0,0,0,.31.48l.3.24a1.57,1.57,0,0,0,.76.2l.4-.05a1.49,1.49,0,0,0,.66-.39Z"/></g></g></svg>